<svg xmlns="http://www.w3.org/2000/svg" viewBox="0 0 512 512" width="512" height="512">
  <title>Batin browser logo — final</title>
  <desc>Two crescents rising like hands raised in prayer (du'a) around a keyhole core. Teal on indigo. Meaning: the inner / the hidden (Batin).</desc>
  <rect width="512" height="512" rx="115" fill="#1A0547"/>
  <g transform="translate(256,256) scale(1.04) translate(-403.5,-327.5)">
    <path fill="#66C1C2" d="M344.045 166.504L344.685 167.056C342.446 169.526 340.156 171.952 337.928 174.43C308.318 207.36 306.068 259.025 337.459 291.909C352.992 308.284 374.481 317.69 397.049 317.99C464.58 319.421 504.29 244.876 471.153 187.984C465.726 178.667 460.291 172.675 452.909 165.059C466.642 172.075 478.653 182.04 488.084 194.241C506.031 217.33 514.006 246.634 510.237 275.633C506.446 306.23 491.2 330.193 467.16 348.932C459.714 354.085 455.033 356.083 447.787 360.573C474.404 380.752 481.799 413.3 475.153 444.731C435.418 451.397 411.922 492.362 371.321 490.492C336.423 488.885 317.495 448.51 320.347 417.458C322.646 392.419 332.538 375.27 351.158 358.926C332.364 349.556 317.944 336.787 306.762 318.917C291.506 294.371 286.611 264.774 293.152 236.623C300.144 206.446 317.934 182.832 344.045 166.504Z"/>
    <path fill="#1A0547" d="M396.156 322.709C407.472 322.432 418.44 328.626 423.782 338.66C427.543 345.749 428.316 354.047 425.93 361.709C423.178 370.578 417.968 375.44 410.097 379.605L410.268 411.082C411.324 411.695 412.371 412.325 413.408 412.97C420.057 417.128 424.636 423.328 426.338 431.045C428.05 438.736 426.667 446.791 422.488 453.47C417.106 461.998 410.136 465.347 400.708 467.454C396.909 467.497 393.563 467.411 389.846 466.404C382.175 464.368 375.655 459.312 371.774 452.388C367.862 445.322 366.95 436.982 369.242 429.237C371.971 419.909 377.413 414.928 385.553 410.464L385.368 379.765C383.444 378.704 381.512 377.593 379.745 376.282C373.516 371.569 369.418 364.571 368.355 356.832C367.135 348.975 369.15 340.959 373.942 334.615C379.768 327.031 387.091 323.98 396.156 322.709Z"/>
    <path fill="#66C1C2" d="M394.487 218.438C410.158 217.009 424.003 228.594 425.36 244.271C426.717 259.949 415.068 273.741 399.385 275.026C383.803 276.303 370.12 264.746 368.771 249.17C367.423 233.594 378.917 219.858 394.487 218.438Z"/>
    <path fill="#66C1C2" d="M483.037 455.479C499.062 454.421 506.253 457.044 518.896 466.768C472.698 459.379 462.359 489.329 420.144 501.694C406.693 504.88 396.3 504.975 382.755 502.586C391.234 501.121 394.953 500.545 403.031 497.278C431.9 485.602 451.264 460.362 483.037 455.479Z"/>
  </g>
</svg>
